<svg width="0" height="0" class="hidden"><symbol fill="none" xmlns="http://www.w3.org/2000/svg" viewBox="0 0 80 81" id="investment-min">
    <path d="M79.977 65.647a3.639 3.639 0 0 0-3.633-3.635c-.843.138-15.938-.354-16.143.386.644-.97.308-3.72.39-4.832a3.647 3.647 0 0 0-3.638-3.639c-.28.067-16.16-.198-15.753.227v-5.882h8.475A10.917 10.917 0 0 0 60.58 37.36a1.212 1.212 0 0 0-1.208-1.212h-9.697a10.887 10.887 0 0 0-8.475 4.057v-8.149a15.744 15.744 0 0 0 10.547-5.228A15.755 15.755 0 0 0 50.907 5a15.743 15.743 0 0 0-26.653 10.744 15.756 15.756 0 0 0 3.976 11.084 15.744 15.744 0 0 0 10.547 5.228v16.255a10.888 10.888 0 0 0-8.5-4.07h-9.679a1.211 1.211 0 0 0-1.211 1.211 10.917 10.917 0 0 0 10.905 10.909h8.5v5.878c.524-.429-15.555-.149-15.754-.223a3.636 3.636 0 0 0-3.633 3.635c.088 1.12-.259 3.851.386 4.832-.153-.754-15.357-.251-16.143-.386A3.636 3.636 0 0 0 0 73.73v3.234A3.643 3.643 0 0 0 3.634 80.6h14.542a3.597 3.597 0 0 0 2.422-.946 3.622 3.622 0 0 0 2.426.946h14.542a3.604 3.604 0 0 0 2.423-.946 3.611 3.611 0 0 0 2.422.946h14.542a3.604 3.604 0 0 0 2.423-.946 3.622 3.622 0 0 0 2.426.946h14.542a3.64 3.64 0 0 0 3.633-3.636c-.085-1.583.404-4.474-.945-5.668 1.339-1.17.874-4.064.945-5.648zM49.675 38.575h8.408a8.504 8.504 0 0 1-8.397 7.274h-8.408a8.504 8.504 0 0 1 8.397-7.274zM30.292 53.931a8.498 8.498 0 0 1-8.394-7.281h8.394a8.499 8.499 0 0 1 8.397 7.273l-8.397.008zM19.39 76.96a1.216 1.216 0 0 1-1.214 1.212H3.634c-1.853-.025-1.063-2.86-1.208-4.447a1.212 1.212 0 0 1 1.208-1.212h14.542c1.856.029 1.052 2.863 1.215 4.447zm19.387 0a1.215 1.215 0 0 1-1.21 1.212H23.02c-1.856-.025-1.063-2.856-1.212-4.447a1.216 1.216 0 0 1 1.212-1.212h14.542c1.855.029 1.04 2.863 1.214 4.447zm0-8.082a1.215 1.215 0 0 1-1.21 1.212H23.02c-1.856-.025-1.063-2.863-1.212-4.446a1.215 1.215 0 0 1 1.212-1.209h14.542c1.855.025 1.04 2.86 1.214 4.443zM26.657 16.35c0-3.537 1.405-6.929 3.905-9.43a13.328 13.328 0 0 1 22.757 9.43 13.328 13.328 0 1 1-26.662 0zm31.521 60.613a1.215 1.215 0 0 1-1.214 1.212H42.41c-1.852-.025-1.045-2.859-1.211-4.446a1.216 1.216 0 0 1 1.211-1.212h14.542c1.856.025 1.048 2.863 1.215 4.447h.01zm0-8.081a1.215 1.215 0 0 1-1.214 1.212H42.41c-1.852-.025-1.045-2.863-1.211-4.447a1.215 1.215 0 0 1 1.211-1.212h14.542c1.856.025 1.048 2.863 1.215 4.447h.01zm0-8.082a1.215 1.215 0 0 1-1.214 1.212H42.41c-1.852-.025-1.045-2.863-1.211-4.446a1.212 1.212 0 0 1 1.211-1.212h14.542c1.856.025 1.048 2.86 1.215 4.446h.01zm19.384 16.163a1.215 1.215 0 0 1-1.211 1.212H61.8c-1.855-.025-1.062-2.855-1.21-4.446a1.212 1.212 0 0 1 1.21-1.212h14.543c1.852.025 1.048 2.866 1.218 4.447zm0-8.081a1.215 1.215 0 0 1-1.211 1.212H61.8c-1.855-.025-1.062-2.863-1.21-4.447a1.212 1.212 0 0 1 1.21-1.212h14.543c1.852.025 1.048 2.863 1.218 4.447zm-32.52-49.046a4.777 4.777 0 0 1-3.846 4.55c.085.896-.067 2.062-1.214 2.065-1.148.004-1.3-1.169-1.212-2.065a4.9 4.9 0 0 1-3.474-2.835 1.212 1.212 0 0 1 2.231-.939c.864 2.307 5.157 1.744 5.093-.776 0-1.509-.889-2.274-2.638-2.274a4.663 4.663 0 0 1-5.022-4.043 4.667 4.667 0 0 1 3.81-5.2c-.088-.9.064-2.07 1.212-2.07 1.147 0 1.303 1.166 1.214 2.066 1.683.237 5.054 2.98 2.834 4.421a1.209 1.209 0 0 1-1.587-.648c-.86-2.31-5.157-1.743-5.093.776 0 1.53.86 2.274 2.624 2.274a4.58 4.58 0 0 1 5.069 4.698zm-12.75-3.486a1.212 1.212 0 1 1-2.065-.862 1.218 1.218 0 0 1 2.08.862h-.014zm16.583 1.212a1.21 1.21 0 1 1 0-2.421 1.21 1.21 0 0 1 0 2.42z" fill="#161616"></path>
  </symbol>
  <symbol fill="none" xmlns="http://www.w3.org/2000/svg" viewBox="0 0 80 81" id="program-min">
    <path d="M51.173 24.031h-20.9a1.209 1.209 0 0 1-1.145-1.211 1.214 1.214 0 0 1 1.145-1.212h20.9a1.208 1.208 0 0 1 1.275 1.212 1.217 1.217 0 0 1-.793 1.139 1.206 1.206 0 0 1-.482.072zm-34.146 0h6.8a1.209 1.209 0 0 0 1.145-1.211 1.214 1.214 0 0 0-1.144-1.212h-6.801a1.209 1.209 0 0 0-1.145 1.212 1.215 1.215 0 0 0 1.145 1.211zm-6.445-2.423H9.27a1.209 1.209 0 0 0-1.144 1.212A1.215 1.215 0 0 0 9.27 24.03h1.312a1.209 1.209 0 0 0 1.145-1.211 1.215 1.215 0 0 0-1.145-1.212zm23.282 11.319H17.027a1.208 1.208 0 0 0-1.145 1.211 1.215 1.215 0 0 0 1.145 1.212h16.837a1.208 1.208 0 0 0 1.21-1.214 1.215 1.215 0 0 0-1.21-1.213v.004zm-23.282 0H9.27a1.208 1.208 0 0 0-1.144 1.211A1.215 1.215 0 0 0 9.27 35.35h1.312a1.208 1.208 0 0 0 1.21-1.214 1.215 1.215 0 0 0-1.21-1.213v.004zM17.03 46.66h16.834a1.208 1.208 0 0 0 1.144-1.211 1.214 1.214 0 0 0-1.145-1.212H17.028a1.209 1.209 0 0 0-1.118 1.21 1.215 1.215 0 0 0 1.118 1.21l.003.003zm-6.448-2.426H9.27a1.208 1.208 0 0 0-1.144 1.211 1.215 1.215 0 0 0 1.144 1.212h1.312a1.208 1.208 0 0 0 1.145-1.212 1.215 1.215 0 0 0-1.145-1.211zm32.94 11.318H28.664a1.209 1.209 0 0 0-1.145 1.212 1.215 1.215 0 0 0 1.145 1.21h14.854a1.208 1.208 0 0 0 1.21-1.212 1.215 1.215 0 0 0-1.21-1.213l.004.003zM17.03 57.976h5.192a1.208 1.208 0 0 0 1.145-1.212 1.215 1.215 0 0 0-1.145-1.21h-5.196a1.209 1.209 0 0 0-1.118 1.209 1.215 1.215 0 0 0 1.118 1.21l.003.003zm-6.449-2.426H9.27a1.208 1.208 0 0 0-1.144 1.211 1.215 1.215 0 0 0 1.144 1.211h1.312a1.208 1.208 0 0 0 1.145-1.211 1.215 1.215 0 0 0-1.145-1.211zm23.324 12.528a1.212 1.212 0 0 0 .745 1.117c.146.061.303.092.461.092h16.064a1.206 1.206 0 0 0 1.177-.732 1.215 1.215 0 0 0-1.177-1.69H35.11a1.202 1.202 0 0 0-1.116.749c-.06.147-.091.304-.09.464h.003zm-16.875 1.21h11.64a1.208 1.208 0 0 0 1.145-1.212 1.214 1.214 0 0 0-1.145-1.212h-11.64a1.209 1.209 0 0 0-1.147 1.21 1.215 1.215 0 0 0 1.146 1.213zm-6.449-2.424H9.27a1.209 1.209 0 0 0-1.144 1.212 1.215 1.215 0 0 0 1.144 1.211h1.312a1.209 1.209 0 0 0 1.145-1.211 1.215 1.215 0 0 0-1.145-1.212zm49.86-28.296v19.083a18.41 18.41 0 0 1 7.803-6.977 18.35 18.35 0 0 1 10.332-1.587 1.208 1.208 0 0 1 1.21 1.21 17.975 17.975 0 0 1-.588 8.062 17.94 17.94 0 0 1-4.06 6.983 17.877 17.877 0 0 1-6.706 4.486 17.836 17.836 0 0 1-7.99 1.076v5.249a4.456 4.456 0 0 1-1.299 3.141 4.431 4.431 0 0 1-3.132 1.305H4.434a4.435 4.435 0 0 1-3.133-1.305A4.46 4.46 0 0 1 0 76.153V5.04a4.456 4.456 0 0 1 1.301-3.14A4.431 4.431 0 0 1 4.434.599h51.575c1.174.002 2.3.47 3.13 1.303a4.455 4.455 0 0 1 1.3 3.14v9.705a1.214 1.214 0 0 1-1.208 1.147 1.208 1.208 0 0 1-1.208-1.147V5.04c0-.535-.214-1.048-.591-1.426a2.012 2.012 0 0 0-1.423-.59H45.934v3.636a6.075 6.075 0 0 1-1.771 4.282 6.042 6.042 0 0 1-4.271 1.777H20.55a6.045 6.045 0 0 1-4.272-1.777 6.078 6.078 0 0 1-1.774-4.282V3.025H4.434c-.534 0-1.045.212-1.423.59-.378.378-.59.891-.591 1.426v71.112c0 .535.212 1.049.59 1.428s.89.591 1.424.591h51.575c.534 0 1.046-.212 1.424-.591.378-.379.59-.893.59-1.428v-21.41a17.836 17.836 0 0 1-7.989-1.077 17.88 17.88 0 0 1-6.705-4.486 17.94 17.94 0 0 1-4.059-6.983 17.975 17.975 0 0 1-.588-8.06 1.214 1.214 0 0 1 .744-1.121c.146-.061.304-.093.462-.093a18.346 18.346 0 0 1 10.334 1.588 18.404 18.404 0 0 1 7.801 6.979v-7.357a17.92 17.92 0 0 1 1.722-7.375 17.876 17.876 0 0 1 4.613-5.998 17.787 17.787 0 0 1 14.216-4 1.212 1.212 0 0 1 1.21 1.212 17.927 17.927 0 0 1-3.99 14.255 17.837 17.837 0 0 1-5.982 4.625 17.791 17.791 0 0 1-7.355 1.727l-2.014-.01zm0-4.138 7.61-7.63a1.21 1.21 0 0 1 1.995 1.323c-.069.15-.167.283-.288.393l-7.605 7.63a15.153 15.153 0 0 0 6.253-1.294 15.19 15.19 0 0 0 5.17-3.757 15.27 15.27 0 0 0 3.79-11.927 15.129 15.129 0 0 0-11.787 3.69 15.206 15.206 0 0 0-3.766 5.08 15.243 15.243 0 0 0-1.378 6.177l.007.315zm-19.34.906a15.265 15.265 0 0 0 3.79 11.928 15.189 15.189 0 0 0 5.17 3.756c1.97.87 4.101 1.311 6.254 1.293l-7.605-7.626a1.215 1.215 0 0 1 .86-2.055c.317-.003.622.12.85.34l7.606 7.626a15.267 15.267 0 0 0-1.292-6.268 15.227 15.227 0 0 0-3.745-5.183 15.15 15.15 0 0 0-11.891-3.801l.003-.01zM16.932 6.66c0 .963.382 1.886 1.06 2.568a3.625 3.625 0 0 0 2.559 1.068h19.34c.962 0 1.884-.384 2.564-1.066a3.645 3.645 0 0 0 1.063-2.57V3.025H16.932v3.636zm43.507 60.104 7.61-7.625a1.205 1.205 0 0 1 2.06.856c0 .32-.127.628-.354.855l-7.605 7.63a15.134 15.134 0 0 0 6.258-1.287 15.169 15.169 0 0 0 5.174-3.756 15.25 15.25 0 0 0 3.783-11.934H75.35A14.904 14.904 0 0 0 64.704 56a14.984 14.984 0 0 0-3.212 4.953 15.018 15.018 0 0 0-1.053 5.812z" fill="#161616"></path>
  </symbol>
  <symbol fill="none" xmlns="http://www.w3.org/2000/svg" viewBox="0 0 80 81" id="ecology-min">
    <path d="M78.496 60.01a3.51 3.51 0 0 0-3.378-.453 3.506 3.506 0 0 0-1.51-3.856c-1.642-1.26-4.14-.184-8.278 1.597a77.42 77.42 0 0 1-9.696 3.598 5.87 5.87 0 0 0-4.828-2.507c-3.2.115-6.405.004-9.59-.333v-6.448h18.182a17.394 17.394 0 0 0 12.274-5.113A17.432 17.432 0 0 0 76.759 34.2a1.216 1.216 0 0 0-1.213-1.215H56.165c-3.022.004-5.99.798-8.613 2.303a17.371 17.371 0 0 0-6.336 6.277V19.221h18.182a17.394 17.394 0 0 0 12.274-5.113 17.432 17.432 0 0 0 5.087-12.295A1.219 1.219 0 0 0 75.56.6H56.166a17.394 17.394 0 0 0-12.283 5.107 17.431 17.431 0 0 0-5.092 12.3v7.38a17.37 17.37 0 0 0-6.334-6.285 17.347 17.347 0 0 0-8.615-2.31H4.446a1.216 1.216 0 0 0-1.213 1.215 17.428 17.428 0 0 0 5.091 12.302 17.39 17.39 0 0 0 12.284 5.106H38.79V57.61c-8.175-3.25-5.186-4.646-27.28-4.887L1.415 51.115A1.226 1.226 0 0 0 0 52.315v21.846a1.212 1.212 0 0 0 1.022 1.197l10.103 1.607C26.229 82.32 58.4 83.64 77.045 67.56c1.285-.743 5.02-4.727 1.45-7.55zM62.61 8.698c-6.399-.283-16.066.138-20.276 3.612a14.975 14.975 0 0 1 5.492-6.735 14.951 14.951 0 0 1 8.304-2.546h18.153a14.992 14.992 0 0 1-4.768 9.791 14.961 14.961 0 0 1-10.131 3.973H41.478c1.242-2.922 6.83-5.666 14.687-5.666h6.445a1.213 1.213 0 0 0 1.213-1.214 1.215 1.215 0 0 0-1.213-1.215zM20.608 32.985a14.968 14.968 0 0 1-10.132-3.973 15 15 0 0 1-4.77-9.79H23.84c2.959.008 5.849.895 8.304 2.548a14.98 14.98 0 0 1 5.492 6.736c-4.181-3.474-13.87-3.902-20.265-3.616a1.213 1.213 0 0 0-.816 2.049c.214.225.506.36.816.377h6.462c7.86 0 13.442 2.748 14.687 5.666l-17.913.003zm-10.414 41.37-7.782-1.232V53.74l7.782 1.233v19.383zm46.219-11.157c5.493-1.23 11.503-5.15 15.72-5.57 3.943 3.424-10.874 7.117-15.862 8.604a6.66 6.66 0 0 0 .142-3.034zm-.248-27.784h18.118a14.996 14.996 0 0 1-4.769 9.79 14.965 14.965 0 0 1-10.13 3.974H41.478c1.242-2.92 6.83-5.665 14.687-5.665h6.445a1.213 1.213 0 0 0 .858-2.074 1.213 1.213 0 0 0-.858-.355c-6.395-.284-16.066.141-20.276 3.615a14.976 14.976 0 0 1 5.506-6.746 14.951 14.951 0 0 1 8.325-2.539zM75.62 65.61C50.83 85.297 18.182 76.586 12.635 74.89V55.152c16.555.075 19.307 1.696 21.74 3.127 2.501 1.466 4.655 2.734 16.54 2.539a3.277 3.277 0 0 1 3.22 2.619c.102.491.09 1-.036 1.485 0 .354-.187 1.547-2.302 2.33-2.268.889-7.263 1.647-18.2.227a1.213 1.213 0 0 0-1.36 1.05 1.217 1.217 0 0 0 1.049 1.361c12.543 2.858 29.784-2.372 38.32-6.406 2.475-1.062 4.824-2.05 5.351-1.61 1.723 1.31-.552 3.076-1.355 3.735h.018zm-69.313-7.68a1.212 1.212 0 0 1 1.213 1.214 1.215 1.215 0 0 1-1.213 1.215 1.213 1.213 0 0 1-1.213-1.215 1.215 1.215 0 0 1 1.213-1.215z" fill="#161616"></path>
  </symbol>
  <symbol fill="none" xmlns="http://www.w3.org/2000/svg" viewBox="0 0 81 81" id="natural-min">
    <path d="M78.84 39.386h-6.417a33.098 33.098 0 0 0-8.79-15.71L40.886.939a1.253 1.253 0 0 0-1.717 0L21.685 18.412c-.354 0-.708-.053-1.062-.053H1.214A1.213 1.213 0 0 0 0 19.569a20.585 20.585 0 0 0 8.577 16.705C-4.602 79.436 56.992 99.702 71.931 56.961a20.582 20.582 0 0 0 8.124-16.375 1.215 1.215 0 0 0-1.215-1.2zM40.027 3.498l21.894 21.89a30.7 30.7 0 0 1 7.99 13.998H59.434A20.63 20.63 0 0 0 41.24 50.32V38.993a20.659 20.659 0 0 0-16.49-20.22L40.027 3.498zM2.478 20.783H20.62a18.209 18.209 0 0 1 16.825 11.328c-5.044-4.623-16.156-4.16-23.285-4.05a1.214 1.214 0 0 0 0 2.425h9.695c7.384 0 13.707 3.229 14.78 7.278H20.62a18.216 18.216 0 0 1-18.142-16.98zm59.47 48.387C38.49 91.981.796 68.374 10.701 37.64a20.51 20.51 0 0 0 9.912 2.55h18.195v32.754a1.215 1.215 0 1 0 2.425 0V61.216h18.195a20.452 20.452 0 0 0 9.203-2.191A30.585 30.585 0 0 1 61.92 69.17h.028zM59.47 58.791H41.417c1.062-4.05 7.395-7.278 14.779-7.278h9.703a1.214 1.214 0 0 0 0-2.424c-7.101-.12-18.305-.563-23.3 4.046a18.205 18.205 0 0 1 16.829-11.328H77.58A18.22 18.22 0 0 1 59.435 58.79h.035zM32.73 70.827a24.605 24.605 0 0 1-17.257-25.459 1.214 1.214 0 0 1 2.418.188 22.181 22.181 0 0 0 15.575 22.956 1.224 1.224 0 0 1-.772 2.322l.036-.007z" fill="#161616"></path>
  </symbol>
  <symbol fill="none" xmlns="http://www.w3.org/2000/svg" viewBox="0 0 80 81" id="payment-min">
    <path d="M21.819 16.357V11.51a2.848 2.848 0 0 0-2.828-2.831h-8.08a2.849 2.849 0 0 0-2.83 2.849v4.829a2.849 2.849 0 0 0 2.848 2.848h8.062a2.85 2.85 0 0 0 2.828-2.848zm-11.314 0V11.51a.406.406 0 0 1 .406-.406h8.08a.406.406 0 0 1 .403.406v4.847a.406.406 0 0 1-.403.405h-8.08a.41.41 0 0 1-.406-.405zm5.748 8.842a1.213 1.213 0 0 1 .9 2.094 1.214 1.214 0 0 1-.9.33H9.294a1.214 1.214 0 0 1 0-2.424h6.959zm5.804 0h6.959a1.215 1.215 0 0 1 0 2.425h-6.959a1.214 1.214 0 0 1 0-2.425zm12.763 2.425a1.214 1.214 0 0 1 0-2.425h6.962a1.214 1.214 0 0 1 0 2.425H34.82zm19.725 0h-6.962a1.214 1.214 0 0 1 0-2.425h6.962a1.213 1.213 0 1 1 0 2.425zm-32.139 6.969H9.294a1.213 1.213 0 1 1 0-2.425h13.112a1.215 1.215 0 0 1 0 2.425zm7.066-2.425h18.396a1.215 1.215 0 0 1 0 2.425H29.472a1.214 1.214 0 0 1 0-2.425zM50.507 8.665a5.206 5.206 0 0 0-3.376 1.253 5.235 5.235 0 1 0 0 8.002 5.246 5.246 0 1 0 3.376-9.26v.005zm-6.738 8.083a2.85 2.85 0 0 1 0-5.658 2.837 2.837 0 0 1 0 5.672v-.014zm6.738 0a2.824 2.824 0 0 1-1.92-.751 5.235 5.235 0 0 0 0-4.156 2.814 2.814 0 1 1 1.92 4.921v-.014zM6.054 49.083c-3.045.356-6-1.068-6.054-4.444V5.043A4.448 4.448 0 0 1 4.444.599h54.952a4.448 4.448 0 0 1 4.444 4.444v30.704a1.214 1.214 0 0 1-2.425 0V5.043a2.019 2.019 0 0 0-2.02-2.02H4.445a2.02 2.02 0 0 0-2.02 2.02v39.596c.068 2.097 2.066 2.104 3.636 2.019a1.214 1.214 0 0 1-.007 2.425zm72.728-9.697h-67.87A1.215 1.215 0 0 0 9.696 40.6v38.784A1.214 1.214 0 0 0 10.91 80.6H78.79A1.214 1.214 0 0 0 80 79.384V40.6a1.21 1.21 0 0 0-1.21-1.214h-.008zm-1.214 38.788h-65.46V41.81H77.56l.007 36.363zm-59.385-9.697a3.64 3.64 0 0 1 3.636 3.635 1.21 1.21 0 0 0 1.21 1.211h43.638a1.21 1.21 0 0 0 1.211-1.21 3.643 3.643 0 0 1 3.636-3.636 1.214 1.214 0 0 0 1.214-1.211V52.719a1.214 1.214 0 0 0-1.214-1.211 3.643 3.643 0 0 1-3.636-3.636 1.211 1.211 0 0 0-1.21-1.214H23.03a1.213 1.213 0 0 0-1.211 1.214 3.639 3.639 0 0 1-3.636 3.65 1.214 1.214 0 0 0-1.214 1.211V67.28a1.215 1.215 0 0 0 1.214 1.197zm1.21-14.669a6.079 6.079 0 0 0 4.73-4.725h41.455a6.054 6.054 0 0 0 4.725 4.726v12.367a6.054 6.054 0 0 0-4.725 4.726H24.123a6.079 6.079 0 0 0-4.73-4.726V53.81zm11.464 11.04a4.85 4.85 0 0 0 0-9.697 4.85 4.85 0 0 0 0 9.69v.007zm0-7.272a2.425 2.425 0 0 1 0 4.847 2.425 2.425 0 0 1 0-4.847zm28.282 7.272a4.85 4.85 0 0 0 0-9.697 4.85 4.85 0 0 0 0 9.69v.007zm0-7.272a2.425 2.425 0 0 1 0 4.847 2.425 2.425 0 0 1 0-4.847zM43.63 51.967c-.089-.897.065-2.069 1.211-2.069 1.147 0 1.3 1.168 1.211 2.066a4.91 4.91 0 0 1 3.493 2.849 1.215 1.215 0 0 1-2.236.94c-.862-2.311-5.153-1.749-5.089.776 0 1.528.855 2.272 2.621 2.272a4.669 4.669 0 1 1 1.211 9.259c.09.897-.068 2.062-1.21 2.066-1.144.003-1.3-1.172-1.212-2.07a4.908 4.908 0 0 1-3.475-2.848 1.212 1.212 0 0 1 2.233-.944c.861 2.315 5.156 1.748 5.092-.773 0-1.506-.887-2.272-2.639-2.272a4.669 4.669 0 0 1-1.21-9.259v.007z" fill="#161616"></path>
  </symbol>
  
  <symbol  xmlns="http://www.w3.org/2000/svg" viewBox="0 0 23 24" id="viber">
    <path d="M6.99926 4.98039C6.78671 4.94933 6.56992 4.992 6.38499 5.10129H6.36922C5.93987 5.35296 5.5531 5.67105 5.22329 6.04372C4.94919 6.36062 4.8005 6.68127 4.76146 6.98991C4.73818 7.17389 4.75394 7.35787 4.80877 7.53359L4.82829 7.5456C5.13693 8.45274 5.54019 9.32533 6.0328 10.1468C6.66736 11.301 7.44829 12.3684 8.35621 13.3226L8.38324 13.3616L8.42605 13.3932L8.45308 13.4247L8.48462 13.4518C9.44229 14.3623 10.5122 15.1469 11.6686 15.7864C12.9903 16.5058 13.7923 16.846 14.2736 16.9872V16.9947C14.4148 17.0375 14.5432 17.057 14.6724 17.057C15.0826 17.027 15.471 16.8604 15.7755 16.5839C16.1465 16.254 16.461 15.8657 16.7067 15.4343V15.4267C16.9372 14.9927 16.8591 14.5819 16.5265 14.3041C15.8602 13.7217 15.1398 13.2045 14.375 12.7594C13.8628 12.4815 13.3425 12.6498 13.1315 12.9314L12.6817 13.4984C12.4511 13.7799 12.0321 13.7408 12.0321 13.7408L12.02 13.7484C8.89538 12.9501 8.06185 9.78639 8.06185 9.78639C8.06185 9.78639 8.02279 9.35614 8.31191 9.13684L8.8751 8.68328C9.1447 8.464 9.33244 7.94435 9.04331 7.43146C8.60132 6.66562 8.0852 5.94501 7.50239 5.28001C7.37497 5.12324 7.19622 5.01657 6.99776 4.97889L6.99926 4.98039Z" ></path>
    <path d="M12.2806 3.60496C11.9646 3.60496 11.7084 3.86112 11.7084 4.17711C11.7084 4.49309 11.9646 4.74925 12.2806 4.74925C13.7275 4.74925 14.9298 5.22221 15.8797 6.12783C16.3687 6.62376 16.7492 7.21079 16.9992 7.85318C17.25 8.49799 17.3641 9.18556 17.3348 9.8743C17.3214 10.19 17.5664 10.4567 17.8821 10.4701C18.1978 10.4836 18.4647 10.2385 18.478 9.92281C18.5141 9.07558 18.3736 8.23024 18.0655 7.43833C17.7575 6.64646 17.2887 5.92486 16.6878 5.31737L16.6764 5.30636C15.4977 4.17921 14.0038 3.60496 12.2806 3.60496Z" ></path>
    <path d="M12.2403 5.48678C11.9244 5.48678 11.6682 5.74294 11.6682 6.05893C11.6682 6.37491 11.9244 6.63107 12.2403 6.63107H12.259C13.3032 6.70465 14.0628 7.05267 14.5955 7.62395C15.1408 8.2123 15.4232 8.94307 15.4022 9.84729C15.3949 10.1631 15.6452 10.4252 15.961 10.4325C16.2769 10.4398 16.539 10.1897 16.5463 9.87372C16.5738 8.68655 16.1919 7.66282 15.4342 6.84542L15.4331 6.84434C14.6589 6.01349 13.5967 5.57395 12.317 5.48806L12.2979 5.48678H12.2403Z" ></path>
    <path d="M12.219 7.40293C11.9034 7.38632 11.6342 7.62865 11.6176 7.9442C11.601 8.25977 11.8434 8.52903 12.1588 8.54564C12.638 8.57085 12.9433 8.71454 13.1353 8.90843C13.3282 9.10315 13.4724 9.41496 13.4987 9.9038C13.5157 10.2194 13.7852 10.4614 14.1008 10.4444C14.4163 10.4274 14.6583 10.1579 14.6414 9.84235C14.6044 9.15577 14.3895 8.54876 13.9484 8.10324C13.5064 7.6569 12.9027 7.43892 12.219 7.40293Z" ></path>
    <path fill-rule="evenodd" clip-rule="evenodd" d="M5.9717 0.61045C9.61291 -0.203483 13.389 -0.203483 17.0302 0.61045L17.4182 0.697164C19.5887 1.18233 21.3017 2.84707 21.8488 5.00276C22.773 8.64486 22.773 12.4602 21.8488 16.1022C21.3017 18.2579 19.5886 19.9227 17.4182 20.4078L17.0302 20.4946C14.743 21.0058 12.4026 21.1959 10.0758 21.0649L7.03974 23.7813C6.80662 23.9899 6.47846 24.0551 6.18329 23.9516C5.88812 23.848 5.67269 23.5921 5.62104 23.2834L5.11891 20.2839C3.17089 19.6786 1.66054 18.1015 1.15316 16.1022C0.228894 12.4602 0.228894 8.64487 1.15316 5.00277C1.70021 2.84707 3.41328 1.18233 5.58375 0.697164L5.9717 0.61045ZM16.6558 2.28554C13.2611 1.52673 9.74084 1.52673 6.34613 2.28554L5.95818 2.37226C4.41931 2.71624 3.20472 3.89655 2.81685 5.42497C1.96291 8.78998 1.96291 12.315 2.81685 15.68C3.20472 17.2084 4.4193 18.3887 5.95818 18.7327L6.06067 18.7556C6.40154 18.8318 6.66222 19.107 6.71989 19.4516L7.05662 21.4631L9.19916 19.5461C9.37215 19.3912 9.60043 19.3132 9.83204 19.3296C12.1132 19.491 14.4119 19.321 16.6558 18.8194L17.0437 18.7327C18.5827 18.3887 19.7972 17.2084 20.1851 15.6801C21.039 12.315 21.039 8.78998 20.1851 5.42497C19.7972 3.89655 18.5827 2.71624 17.0437 2.37226L16.6558 2.28554Z" ></path>
  </symbol>
  <symbol  xmlns="http://www.w3.org/2000/svg" viewBox="0 0 28 24" id="telegram">
    <path fill-rule="evenodd" clip-rule="evenodd" d="M5.91301 14.5371C5.97209 14.5571 6.03172 14.5711 6.09131 14.5798C6.15629 14.7326 6.24023 14.9301 6.33818 15.161C6.5772 15.7247 6.89926 16.4872 7.23168 17.2825C7.90963 18.9046 8.59347 20.5767 8.7445 21.0553C8.93147 21.6469 9.1291 22.0492 9.34484 22.3239C9.4564 22.4659 9.58542 22.5898 9.73638 22.6837C9.81238 22.731 9.89267 22.7697 9.97646 22.7986C9.98015 22.8 9.98383 22.8012 9.98752 22.8024C10.4195 22.9655 10.8133 22.8976 11.0599 22.8145C11.1918 22.77 11.2986 22.7164 11.3742 22.6729C11.4128 22.6507 11.4454 22.63 11.4714 22.6125L11.4775 22.6084L15.2924 20.2294L19.6989 23.6077C19.764 23.6575 19.8349 23.6994 19.9101 23.7322C20.4395 23.9631 20.952 24.0437 21.4343 23.9778C21.9156 23.9121 22.2979 23.7099 22.5825 23.4822C22.8611 23.2593 23.0499 23.0096 23.1676 22.8241C23.2277 22.7294 23.2728 22.6455 23.3045 22.5814C23.3205 22.5492 23.3334 22.5214 23.3432 22.4991L23.356 22.4697L23.3608 22.4581L23.3628 22.4532L23.3637 22.4509L23.3645 22.4487C23.3878 22.3908 23.4054 22.3309 23.4176 22.2698L27.4405 1.98795C27.4533 1.92309 27.4598 1.85711 27.4598 1.79098C27.4598 1.19704 27.236 0.632273 26.7098 0.289565C26.2601 -0.00334768 25.759 -0.015955 25.4423 0.00807192C25.1008 0.0340021 24.7854 0.118326 24.5736 0.185696C24.4634 0.220764 24.3711 0.254591 24.3046 0.2804C24.2711 0.293372 24.2436 0.304508 24.2232 0.312998L24.2078 0.31945L1.64716 9.16966L1.64424 9.17074C1.62986 9.176 1.6114 9.18289 1.58946 9.19139C1.54578 9.2084 1.48724 9.23229 1.41887 9.26334C1.28554 9.32381 1.09848 9.41816 0.906517 9.54964C0.599849 9.75967 -0.105423 10.3348 0.0133351 11.2842C0.10808 12.0416 0.626927 12.5067 0.943043 12.7304C1.11662 12.8532 1.28153 12.9409 1.40162 12.9982C1.45733 13.0246 1.57301 13.0716 1.6232 13.0921L1.63587 13.0973L5.91301 14.5371ZM24.9974 2.18383L24.9942 2.18521C24.983 2.1901 24.9716 2.19477 24.9603 2.19925L2.37222 11.0602C2.36042 11.0648 2.34854 11.0693 2.33658 11.0735L2.32401 11.0782C2.30956 11.0839 2.28523 11.0937 2.2547 11.1075C2.23738 11.1153 2.21931 11.1239 2.20088 11.1331C2.2262 11.1474 2.25042 11.1597 2.27195 11.17C2.29262 11.1798 2.30838 11.1866 2.31701 11.1901L6.55902 12.6182C6.63666 12.6444 6.70904 12.6789 6.77548 12.7208L20.7823 4.52123L20.7954 4.51348C20.8057 4.50744 20.819 4.4997 20.8351 4.49061C20.867 4.47259 20.9108 4.44861 20.9629 4.42208C21.0601 4.37261 21.2156 4.29917 21.3908 4.24501C21.5128 4.20731 21.8726 4.10109 22.2615 4.22583C22.5015 4.30281 22.75 4.46831 22.9115 4.74867C22.9919 4.88796 23.0346 5.02788 23.0553 5.15597C23.1104 5.35774 23.1017 5.55699 23.0587 5.729C22.9658 6.09954 22.7054 6.38857 22.4685 6.60964C22.2656 6.79917 19.6397 9.33123 17.0492 11.8308C15.7573 13.0773 14.4786 14.3116 13.5229 15.234L12.8951 15.8401L20.8213 21.9168C21.003 21.9818 21.1105 21.9786 21.1603 21.9717C21.2195 21.9636 21.268 21.9408 21.3175 21.9012C21.3729 21.857 21.4213 21.797 21.4575 21.7399L21.459 21.7376L25.3607 2.06662C25.3028 2.08053 25.2442 2.09711 25.1878 2.11506C25.1238 2.1354 25.0711 2.15479 25.0362 2.16832C25.0189 2.17503 25.0065 2.18012 24.9997 2.18293L24.9974 2.18383ZM13.5761 18.9135L11.9948 17.7011L11.6116 20.1385L13.5761 18.9135ZM10.5442 15.2955L12.1167 13.7773C13.0725 12.8547 14.3513 11.6204 15.6433 10.3737L16.956 9.1073L8.15506 14.2593L8.20228 14.3707C8.44214 14.9364 8.76564 15.7022 9.09983 16.5018C9.34973 17.0996 9.61104 17.7292 9.84905 18.3121L10.2311 15.8818C10.2679 15.6475 10.3824 15.4447 10.5442 15.2955Z" ></path>
  </symbol>
  <symbol  xmlns="http://www.w3.org/2000/svg" viewBox="0 0 24 24" id="inst">
    <path d="M17.0828 5.65644C17.0828 4.95569 17.6518 4.38761 18.3537 4.38761C19.0556 4.38761 19.6246 4.95569 19.6246 5.65644C19.6246 6.35719 19.0556 6.92526 18.3537 6.92526C17.6518 6.92526 17.0828 6.35719 17.0828 5.65644Z" ></path>
    <path fill-rule="evenodd" clip-rule="evenodd" d="M11.9991 5.97364C8.66512 5.97364 5.96234 8.67199 5.96234 12.0006C5.96234 15.3292 8.66512 18.0275 11.9991 18.0275C15.3332 18.0275 18.036 15.3292 18.036 12.0006C18.036 8.67199 15.3332 5.97364 11.9991 5.97364ZM7.8687 12.0006C7.8687 9.72315 9.718 7.87688 11.9991 7.87688C14.2803 7.87688 16.1296 9.72315 16.1296 12.0006C16.1296 14.278 14.2803 16.1243 11.9991 16.1243C9.718 16.1243 7.8687 14.278 7.8687 12.0006Z" ></path>
    <path fill-rule="evenodd" clip-rule="evenodd" d="M18.6828 0.368705C14.2771 -0.122902 9.72292 -0.122902 5.31728 0.368705C2.76014 0.654026 0.695764 2.66513 0.395131 5.23137C-0.13171 9.72843 -0.13171 14.2716 0.395131 18.7687C0.695764 21.3349 2.76014 23.346 5.31728 23.6313C9.72292 24.1229 14.2771 24.1229 18.6828 23.6313C21.2399 23.346 23.3042 21.3349 23.6049 18.7687C24.1317 14.2716 24.1317 9.72843 23.6049 5.23137C23.3042 2.66513 21.2399 0.654026 18.6828 0.368705ZM5.52902 2.26016C9.79396 1.78427 14.206 1.78427 18.471 2.26016C20.1615 2.44878 21.5155 3.78057 21.7115 5.45246C22.2211 9.80266 22.2211 14.1974 21.7115 18.5475C21.5155 20.2195 20.1615 21.5512 18.471 21.7399C14.206 22.2157 9.79396 22.2157 5.52902 21.7399C3.83858 21.5512 2.48444 20.2195 2.28858 18.5475C1.77895 14.1974 1.77895 9.80266 2.28858 5.45246C2.48444 3.78057 3.83858 2.44878 5.52902 2.26016Z" ></path>
  </symbol>
</svg>